<?xml version="1.0" encoding="UTF-8"?>
<svg id="Layer_1" xmlns="http://www.w3.org/2000/svg" version="1.1" viewBox="0 0 1200 1200">
  <defs>
    <style>
      .st0 {
        fill: #ffffff;
      }
    </style>
  </defs>
  <path class="st0" d="M597.4,176C307.9,176,28.9,443.6,28.9,761.9s277.6,257.4,568.5,257.4,573.8,60.7,573.8-257.4S887.1,176,597.4,176ZM362.1,823h-.2.1c-59.7,0-79.6-78.3-79.6-199.5s39.9-219.4,119.6-219.4,99.6,39.9,99.6,179.5-79.6,239.2-139.6,239.3h.1ZM840.8,823h-.2c-59.8,0-139.6-118.2-139.6-239.3s44.6-179.5,99.6-179.5c79.7,0,119.6,79.7,119.6,219.4s-19.9,199.4-79.6,199.5h.2Z"/>
</svg>