<?xml version="1.0" encoding="UTF-8"?>
<svg id="Layer_1" data-name="Layer 1" xmlns="http://www.w3.org/2000/svg" viewBox="0 0 1920 1080">
  <defs>
    <style>
      .cls-1 {
        fill: #fff;
      }
    </style>
  </defs>
  <path class="cls-1" d="M1614.13,476.5l-35.92-38.93,55.66-65.14h77.2l-96.94,104.07ZM1602.03,489.49l-16.04-17.4-19.35-20.99-72.51-78.68h-77.68l113.55,119.98-102.8,111.2v-136.89c0-17.26-2.61-32.16-7.82-44.71-5.22-12.54-12.54-22.88-21.98-31.02-9.45-8.14-20.52-14.17-33.22-18.08-12.71-3.91-26.56-5.86-41.53-5.86-17.27,0-32.73,2.61-46.41,7.82-13.68,5.22-25.48,12.3-35.42,21.25-9.94,8.96-17.83,18.81-23.7,29.56-2.99,5.49-5.43,11.07-7.33,16.73v-69.98h-119.69l-81.35,178.3-80.37-178.3h-103.58l-68.48,171.63-59.03-171.63h-72.8l-61.64,171.85-65.87-171.85h-69.87l11.69,27.27c-7.67-9.15-17.88-16.54-30.65-22.14-15.96-7-35.99-10.51-60.09-10.51-15.96,0-30.86,1.63-44.71,4.89-13.84,3.26-25.89,7.98-36.15,14.17s-18.24,13.85-23.94,22.96c-5.7,9.13-8.55,19.54-8.55,31.27s2.85,22.23,8.55,30.54c5.69,8.31,13.44,15.15,23.21,20.52,9.78,5.37,21.01,9.7,33.71,12.95,12.7,3.26,25.89,6.04,39.57,8.31,13.68,1.95,24.92,4.08,33.71,6.36,8.79,2.28,15.31,5.3,19.54,9.04,4.22,3.75,6.35,9.04,6.35,15.88,0,5.54-1.31,10.5-3.91,14.9-2.61,4.4-7.33,7.74-14.17,10.01-6.84,2.28-16.45,3.42-28.83,3.42-18.24,0-32.98-3.49-44.21-10.51-11.24-7-18.65-16.04-22.23-27.11h-58.63c-.66,4.57,0,10.42,1.96,17.59,1.96,7.16,5.62,14.74,10.99,22.72,5.38,7.98,12.95,15.48,22.72,22.48,9.77,7.01,22.06,12.7,36.89,17.1,14.82,4.4,32.49,6.59,53.01,6.59,23.13,0,43-2.85,59.61-8.54,16.61-5.69,29.39-13.92,38.35-24.68,8.95-10.75,13.44-23.94,13.44-39.57,0-12.7-2.69-23.21-8.06-31.51-5.38-8.31-12.63-14.98-21.74-20.04-9.13-5.04-19.47-9.19-31.03-12.45-11.56-3.25-23.69-6.19-36.39-8.8-14.99-2.6-27.45-5.04-37.38-7.33-9.94-2.27-17.43-5.29-22.48-9.04-5.05-3.74-7.57-9.04-7.57-15.88,0-8.46,4.07-15.15,12.22-20.03,8.14-4.89,20.19-7.33,36.15-7.33s28.34,2.69,36.15,8.06c7.82,5.37,13.02,14.09,15.63,26.14h56.19c0-4.12-.26-8.11-.77-11.99l75.91,177.13h59.6l69.7-169.4,67.59,169.4h59.61l90.95-206.39,98.99,204.14-53.63,99.96h65.96l156.34-316.78v219.07h63.51v-144.47c2.5-6.13,6.25-12.13,11.24-17.98,8.46-9.93,19.54-18.16,33.22-24.68,13.68-6.51,28.98-9.77,45.93-9.77,22.47,0,38.67,4.81,48.61,14.41,9.93,9.62,14.9,24.68,14.9,45.2v137.29h130.45l71.19-84.2,74.89,84.2h77.68l-115.88-125.75Z"/>
</svg>